<?xml version="1.0" encoding="utf-8"?>
<!-- Generator: Adobe Illustrator 23.0.1, SVG Export Plug-In . SVG Version: 6.00 Build 0)  -->
<svg version="1.1" id="Capa_1" xmlns="http://www.w3.org/2000/svg" xmlns:xlink="http://www.w3.org/1999/xlink" x="0px" y="0px"
	 viewBox="0 0 78.6 89.22" style="enable-background:new 0 0 78.6 89.22;" xml:space="preserve">
<style type="text/css">
	.st0{fill:none;stroke:#0EC1AE;stroke-width:1.5;stroke-miterlimit:10;}
	.st1{fill:none;stroke:#0EC1AE;stroke-width:1.5;stroke-linecap:round;stroke-linejoin:round;stroke-miterlimit:10;}
</style>
<g>
	<path class="st0" d="M77.85,64.42V24.79c0-1.51-0.81-2.91-2.11-3.66L41.41,1.32c-1.31-0.76-2.92-0.76-4.23,0L2.87,21.13
		c-1.31,0.76-2.12,2.15-2.12,3.66v39.63c0,1.51,0.81,2.91,2.12,3.66L37.18,87.9c1.31,0.76,2.92,0.76,4.23,0l34.32-19.81
		C77.04,67.33,77.85,65.93,77.85,64.42z"/>
	<g>
		<line class="st1" x1="52.79" y1="30.91" x2="25.6" y2="58.1"/>
		<circle class="st0" cx="31.04" cy="36.35" r="6.84"/>
		<circle class="st0" cx="47.56" cy="52.87" r="6.84"/>
	</g>
</g>
</svg>
