<?xml version="1.0" encoding="utf-8"?>
<!-- Generator: Adobe Illustrator 23.0.1, SVG Export Plug-In . SVG Version: 6.00 Build 0)  -->
<svg version="1.1" id="Capa_1" xmlns="http://www.w3.org/2000/svg" xmlns:xlink="http://www.w3.org/1999/xlink" x="0px" y="0px"
	 viewBox="0 0 89.55 89.55" style="enable-background:new 0 0 89.55 89.55;" xml:space="preserve">
<style type="text/css">
	.st0{fill:none;stroke:#0EC1AE;stroke-width:1.5;stroke-linecap:round;stroke-linejoin:round;stroke-miterlimit:10;}
</style>
<g>
	<path class="st0" d="M79.66,24.33C72.98,10.38,58.73,0.75,42.23,0.75c-22.91,0-41.48,18.57-41.48,41.48c0,16.65,9.81,31,23.96,37.6
		l17.52-37.6L79.66,24.33z"/>
	<path class="st0" d="M29.79,85.45c4.6,2.15,9.73,3.35,15.14,3.35c8.72,0,16.72-3.12,22.93-8.3L44.85,53.14L29.79,85.45z"/>
	<path class="st0" d="M88.8,47.32c0-6.41-1.46-12.48-4.05-17.9l-37.43,17.9l-0.1,0.21l26.64,31.66
		C82.99,71.58,88.8,60.13,88.8,47.32z"/>
</g>
<circle class="st0" cx="47.22" cy="66.98" r="0.83"/>
<circle class="st0" cx="55.17" cy="77.96" r="1.88"/>
<circle class="st0" cx="42.21" cy="76.08" r="2.47"/>
<circle class="st0" cx="61.29" cy="47.9" r="0.54"/>
<circle class="st0" cx="72.09" cy="44.12" r="3.24"/>
<circle class="st0" cx="73.71" cy="63.02" r="0.99"/>
<circle class="st0" cx="81.09" cy="55.28" r="1.98"/>
</svg>
