<?xml version="1.0" encoding="utf-8"?>
<!-- Generator: Adobe Illustrator 23.0.1, SVG Export Plug-In . SVG Version: 6.00 Build 0)  -->
<svg version="1.1" id="Capa_1" xmlns="http://www.w3.org/2000/svg" xmlns:xlink="http://www.w3.org/1999/xlink" x="0px" y="0px"
	 viewBox="0 0 98.33 89.91" style="enable-background:new 0 0 98.33 89.91;" xml:space="preserve">
<style type="text/css">
	.st0{fill:none;stroke:#0EC1AE;stroke-width:1.5;stroke-miterlimit:10;}
	.st1{fill:none;stroke:#0EC1AE;stroke-width:1.5;stroke-linecap:round;stroke-linejoin:round;stroke-miterlimit:10;}
</style>
<g>
	<path class="st0" d="M88.15,89.16h-9.68c-5.21,0-9.43-4.22-9.43-9.43V58.41c0-5.21,4.22-9.43,9.43-9.43h9.68
		c5.21,0,9.43,4.22,9.43,9.43v21.32C97.58,84.94,93.36,89.16,88.15,89.16z"/>
	<path class="st0" d="M47.51,75.87H4.98c-2.34,0-4.23-1.89-4.23-4.23V4.98c0-2.34,1.89-4.23,4.23-4.23h79.2
		c2.34,0,4.23,1.89,4.23,4.23v19.81"/>
	<path class="st0" d="M88.84,89.16h-37.1c-2.34,0-4.23-1.89-4.23-4.23V29.02c0-2.34,1.89-4.23,4.23-4.23h37.1
		c2.34,0,4.23,1.89,4.23,4.23v20.93"/>
	<polyline class="st0" points="25.35,75.87 25.35,89.16 75.97,89.16 	"/>
	<line class="st1" x1="16.32" y1="89.16" x2="25.35" y2="89.16"/>
</g>
<line class="st0" x1="0.75" y1="61.98" x2="47.51" y2="61.98"/>
</svg>
