<?xml version="1.0" encoding="utf-8"?>
<!-- Generator: Adobe Illustrator 23.0.1, SVG Export Plug-In . SVG Version: 6.00 Build 0)  -->
<svg version="1.1" id="Capa_1" xmlns="http://www.w3.org/2000/svg" xmlns:xlink="http://www.w3.org/1999/xlink" x="0px" y="0px"
	 viewBox="0 0 89.36 89.36" style="enable-background:new 0 0 89.36 89.36;" xml:space="preserve">
<style type="text/css">
	.st0{fill:none;stroke:#0EC1AE;stroke-width:1.5;stroke-miterlimit:10;}
	.st1{fill:none;stroke:#0EC1AE;stroke-width:1.5;stroke-linecap:round;stroke-linejoin:round;stroke-miterlimit:10;}
</style>
<path class="st0" d="M83.89,88.61H5.47c-2.61,0-4.72-2.11-4.72-4.72V5.47c0-2.61,2.11-4.72,4.72-4.72h78.42
	c2.61,0,4.72,2.11,4.72,4.72v78.42C88.61,86.5,86.5,88.61,83.89,88.61z"/>
<path class="st0" d="M54.02,33.7H35.34c-2.43,0-4.39-1.97-4.39-4.39V0.75h27.46V29.3C58.41,31.73,56.44,33.7,54.02,33.7z"/>
<path class="st0" d="M27.47,77.63H16.13c-1.93,0-3.49-1.56-3.49-3.49V62.81c0-1.93,1.56-3.49,3.49-3.49h11.33
	c1.93,0,3.49,1.56,3.49,3.49v11.33C30.95,76.07,29.39,77.63,27.47,77.63z"/>
<line class="st1" x1="38.58" y1="62.98" x2="55.06" y2="62.98"/>
<line class="st1" x1="38.58" y1="72.14" x2="46.82" y2="72.14"/>
<line class="st1" x1="51.76" y1="72.14" x2="62.31" y2="72.14"/>
</svg>
